<svg xmlns="http://www.w3.org/2000/svg" fill="none" viewBox="0 0 33.192 27.864"><path fill="#fff" d="M1.821 8.317c0-.687 0-1.031.038-1.33a4.857 4.857 0 013.507-4.076c.29-.081.63-.133 1.311-.235a117.39 117.39 0 012.942-.424 56.669 56.669 0 0113.954 0c.735.091 1.47.202 2.942.424.68.102 1.02.154 1.31.235a4.858 4.858 0 013.508 4.075c.037.3.037.644.037 1.332v11.227c0 .688 0 1.032-.037 1.332a4.858 4.858 0 01-3.507 4.075c-.29.082-.631.133-1.312.235-1.47.222-2.206.333-2.941.424-4.634.575-9.32.575-13.954 0-.735-.09-1.47-.202-2.942-.423-.68-.103-1.02-.154-1.311-.236a4.857 4.857 0 01-3.507-4.075c-.038-.3-.038-.643-.038-1.332z"/><g filter="url(#a)" opacity=".6" transform="translate(-6 -2.033)"><rect width="25.459" height="21.304" x="9.809" y="9.507" fill="#383868" rx="5.828"/></g><mask id="b" width="31" height="26" x="7" y="3" maskUnits="userSpaceOnUse"><path fill="#9f9f9f" d="M7.821 10.336c0-.69 0-1.035.038-1.335a4.866 4.866 0 013.507-4.086c.29-.082.63-.133 1.311-.236 1.471-.222 2.207-.333 2.942-.425a56.517 56.517 0 0113.954 0c.735.092 1.47.203 2.942.425.68.103 1.02.154 1.31.236a4.867 4.867 0 013.508 4.086c.037.3.037.645.037 1.335v11.258c0 .69 0 1.035-.037 1.335a4.867 4.867 0 01-3.507 4.086c-.29.082-.631.134-1.312.236-1.47.223-2.206.334-2.941.425a56.52 56.52 0 01-13.954 0 112.4 112.4 0 01-2.942-.425c-.68-.103-1.02-.154-1.311-.236a4.867 4.867 0 01-3.507-4.086c-.038-.3-.038-.645-.038-1.335z"/></mask><g mask="url(#b)" transform="translate(-6 -2.033)"><path fill="#5fd6ff" d="M7.821 10.336c0-.69 0-1.035.038-1.335a4.866 4.866 0 013.507-4.086c.29-.082.63-.133 1.311-.236 1.471-.222 2.207-.333 2.942-.425a56.517 56.517 0 0113.954 0c.735.092 1.47.203 2.942.425.68.103 1.02.154 1.31.236a4.867 4.867 0 013.508 4.086c.037.3.037.645.037 1.335v11.258c0 .69 0 1.035-.037 1.335a4.867 4.867 0 01-3.507 4.086c-.29.082-.631.134-1.312.236-1.47.223-2.206.334-2.941.425a56.52 56.52 0 01-13.954 0 112.4 112.4 0 01-2.942-.425c-.68-.103-1.02-.154-1.311-.236a4.867 4.867 0 01-3.507-4.086c-.038-.3-.038-.645-.038-1.335z"/><path fill="#fff" d="M26.97 9.587c1.775 2.13 2.662 3.195 3.05 4.367a6.51 6.51 0 010 4.087c-.388 1.172-1.275 2.237-3.05 4.367l-44.01 52.835c-4.753 5.705-7.13 8.558-9.162 9.002a6.063 6.063 0 01-6.088-2.214c-1.277-1.648-1.277-5.365-1.277-12.799v-106.47c0-7.433 0-11.15 1.276-12.798a6.063 6.063 0 016.089-2.214c2.033.444 4.41 3.297 9.162 9.002z"/><path fill="#2c2b48" d="M21.077 9.67c2.726 2.053 4.089 3.08 4.621 4.316a5.086 5.086 0 010 4.022c-.532 1.237-1.895 2.263-4.621 4.317L-8.283 44.44c-3.888 2.929-5.832 4.393-7.453 4.432a5.055 5.055 0 01-4.24-2.123c-.942-1.323-.942-3.76-.942-8.636V-6.12c0-4.876 0-7.314.943-8.637a5.055 5.055 0 014.239-2.123c1.62.04 3.565 1.504 7.453 4.432z"/><path fill="#5fd6ff" d="M19.786 14.65c.67.45 1.004.676 1.121.96a1.02 1.02 0 010 .775c-.117.283-.452.509-1.121.96l-3.826 2.577c-.819.552-1.228.827-1.568.808a1.011 1.011 0 01-.749-.4c-.205-.272-.205-.766-.205-1.755V13.42c0-.99 0-1.484.205-1.756.18-.236.453-.383.749-.4.34-.02.75.257 1.568.808z"/></g><g opacity=".1" transform="translate(-6 -2.033)"><mask id="c" width="31" height="26" x="7" y="3" maskUnits="userSpaceOnUse"><path fill="#9f9f9f" d="M7.821 10.319c0-.688 0-1.032.038-1.332a4.857 4.857 0 013.507-4.075c.29-.082.63-.133 1.311-.235 1.471-.222 2.207-.333 2.942-.424a56.669 56.669 0 0113.954 0c.735.091 1.47.202 2.942.424.68.102 1.02.153 1.31.235a4.858 4.858 0 013.508 4.075c.037.3.037.644.037 1.332v11.227c0 .688 0 1.032-.037 1.332a4.857 4.857 0 01-3.507 4.075c-.29.082-.631.133-1.312.235-1.47.222-2.206.333-2.941.424-4.634.575-9.32.575-13.954 0-.735-.091-1.47-.202-2.942-.424-.68-.102-1.02-.153-1.311-.235a4.857 4.857 0 01-3.507-4.075c-.038-.3-.038-.644-.038-1.332z"/></mask><g mask="url(#c)"><path fill="url(#d)" d="M6.203 4.226h32.989V3.82H6.202z"/><path fill="url(#e)" d="M6.203 5.035h32.989V4.63H6.202z"/><path fill="url(#f)" d="M39.192 5.845H6.202V5.44h32.99z"/><path fill="url(#g)" d="M6.203 6.654h32.989V6.25H6.202z"/><path fill="url(#h)" d="M39.192 7.464H6.202v-.405h32.99z"/><path fill="url(#i)" d="M6.203 8.273h32.989V7.87H6.202z"/><path fill="url(#j)" d="M39.192 9.083H6.202v-.405h32.99z"/><path fill="url(#k)" d="M6.203 9.893h32.989v-.405H6.202z"/><path fill="url(#l)" d="M39.192 10.702H6.202v-.405h32.99z"/><path fill="url(#m)" d="M6.203 11.512h32.989v-.405H6.202z"/><path fill="url(#n)" d="M39.192 12.321H6.202v-.405h32.99z"/><path fill="url(#o)" d="M6.203 13.13h32.989v-.404H6.202z"/><path fill="url(#p)" d="M39.192 13.94H6.202v-.404h32.99z"/><path fill="url(#q)" d="M6.203 14.75h32.989v-.405H6.202z"/><path fill="url(#r)" d="M39.192 15.56H6.202v-.405h32.99z"/><path fill="url(#s)" d="M6.203 16.369h32.989v-.405H6.202z"/><path fill="url(#t)" d="M39.192 17.179H6.202v-.405h32.99z"/><path fill="url(#u)" d="M6.203 17.988h32.989v-.405H6.202z"/><path fill="url(#v)" d="M39.192 18.798H6.202v-.405h32.99z"/><path fill="url(#w)" d="M6.203 19.607h32.989v-.404H6.202z"/><path fill="url(#x)" d="M39.192 20.417H6.202v-.405h32.99z"/><path fill="url(#y)" d="M6.203 21.226h32.989v-.404H6.202z"/><path fill="url(#z)" d="M39.192 22.036H6.202v-.405h32.99z"/><path fill="url(#A)" d="M6.203 22.845h32.989v-.404H6.202z"/><path fill="url(#B)" d="M39.192 23.655H6.202v-.405h32.99z"/><path fill="url(#C)" d="M6.203 24.465h32.989v-.405H6.202z"/><path fill="url(#D)" d="M39.192 26.084H6.202v-.405h32.99z"/><path fill="url(#E)" d="M6.203 26.893h32.989v-.405H6.202z"/><path fill="url(#F)" d="M39.192 27.703H6.202v-.405h32.99z"/><path fill="url(#G)" d="M6.203 25.274h32.989v-.405H6.202z"/></g></g><path fill="url(#H)" d="M7.821 10.35c0-.687 0-1.031.038-1.33a4.857 4.857 0 013.507-4.076c.29-.081.63-.133 1.311-.235a117.39 117.39 0 012.942-.424 56.669 56.669 0 0113.954 0c.735.091 1.47.202 2.942.424.68.102 1.02.154 1.31.235a4.858 4.858 0 013.508 4.075c.037.3.037.644.037 1.332v11.227c0 .688 0 1.032-.037 1.332a4.858 4.858 0 01-3.507 4.075c-.29.082-.631.133-1.312.235-1.47.222-2.206.333-2.941.424-4.634.575-9.32.575-13.954 0-.735-.09-1.47-.202-2.942-.423-.68-.103-1.02-.154-1.311-.236a4.857 4.857 0 01-3.507-4.075c-.038-.3-.038-.643-.038-1.332z" opacity=".4" transform="translate(-6 -2.033)"/><path fill="url(#I)" fill-rule="evenodd" d="M30.358 19.546V8.318c0-.717-.002-.985-.03-1.206a3.845 3.845 0 00-2.776-3.226c-.215-.06-.48-.103-1.188-.21a116.394 116.394 0 00-2.916-.42 55.656 55.656 0 00-13.705 0c-.718.09-1.439.198-2.915.42-.71.107-.973.15-1.189.21a3.845 3.845 0 00-2.776 3.226c-.028.221-.03.489-.03 1.206v11.227c0 .718.002.985.03 1.207a3.845 3.845 0 002.776 3.226c.216.06.48.102 1.189.209 1.476.222 2.197.33 2.915.42 4.551.565 9.154.565 13.705 0 .719-.09 1.44-.198 2.916-.42.709-.107.973-.149 1.188-.209a3.845 3.845 0 002.777-3.226c.027-.222.03-.49.03-1.207zm-28.5-12.56c-.037.3-.037.644-.037 1.332v11.227c0 .689 0 1.033.038 1.332a4.857 4.857 0 003.507 4.075c.29.082.63.133 1.311.236 1.471.221 2.207.332 2.942.423 4.633.575 9.32.575 13.954 0 .735-.09 1.47-.202 2.942-.423.68-.103 1.02-.154 1.31-.236a4.858 4.858 0 003.508-4.075c.037-.3.037-.643.037-1.332V8.318c0-.688 0-1.032-.037-1.332a4.858 4.858 0 00-3.507-4.075c-.29-.081-.631-.133-1.311-.235-1.472-.222-2.207-.333-2.942-.424a56.669 56.669 0 00-13.954 0c-.735.091-1.47.202-2.942.424-.68.102-1.02.154-1.311.235a4.857 4.857 0 00-3.507 4.075z" clip-rule="evenodd" opacity=".2"/><path fill="url(#J)" fill-rule="evenodd" d="M33.192 8.318v11.335c0 .583 0 1.036-.052 1.45a6.679 6.679 0 01-4.822 5.603c-.402.113-.85.18-1.426.267a59.6 59.6 0 00-.106.016l-.03.005c-1.443.217-2.2.331-2.959.425a58.42 58.42 0 01-14.402 0c-.759-.094-1.516-.208-2.96-.425l-.03-.005-.105-.016c-.577-.086-1.024-.154-1.426-.267A6.679 6.679 0 01.05 21.103C0 20.688 0 20.236 0 19.653V8.212c0-.584 0-1.036.051-1.45a6.679 6.679 0 014.823-5.604c.402-.113.85-.18 1.426-.267l.106-.016.03-.004C7.88.653 8.636.539 9.395.445a58.49 58.49 0 0114.402 0c.759.094 1.516.208 2.959.426l.03.004.106.016c.577.087 1.024.154 1.426.267a6.679 6.679 0 014.822 5.603c.052.415.052.867.052 1.45v.107zM1.859 6.987c-.037.3-.037.643-.037 1.331v11.228c0 .688 0 1.032.037 1.332a4.857 4.857 0 003.507 4.075c.29.081.63.133 1.311.235 1.472.222 2.207.333 2.942.424 4.633.575 9.32.575 13.954 0 .735-.091 1.47-.202 2.942-.424.68-.102 1.02-.154 1.31-.235a4.857 4.857 0 003.508-4.075c.037-.3.037-.644.037-1.332V8.318c0-.688 0-1.032-.037-1.331a4.857 4.857 0 00-3.507-4.075c-.29-.082-.631-.133-1.311-.236a117.33 117.33 0 00-2.942-.423 56.668 56.668 0 00-13.954 0c-.735.09-1.47.202-2.942.423-.68.103-1.02.154-1.311.236a4.857 4.857 0 00-3.507 4.075z" clip-rule="evenodd"/><path fill="url(#K)" fill-rule="evenodd" d="M31.572 19.565c0 .67 0 1.025-.039 1.337a5.06 5.06 0 01-3.653 4.245c-.303.085-.654.138-1.316.238l-.023.004c-1.468.22-2.206.332-2.943.423-4.65.577-9.354.577-14.004 0-.738-.091-1.476-.202-2.944-.424l-.023-.003c-.662-.1-1.013-.153-1.316-.238a5.06 5.06 0 01-3.653-4.245c-.04-.312-.04-.667-.04-1.337V8.298c0-.669 0-1.024.04-1.336A5.06 5.06 0 015.31 2.717c.303-.085.654-.138 1.316-.238l.023-.004c1.468-.22 2.206-.332 2.944-.423a56.872 56.872 0 0114.004 0c.737.091 1.475.202 2.943.423l.023.004c.662.1 1.013.153 1.316.238a5.06 5.06 0 013.653 4.245c.04.312.04.667.04 1.337zM1.86 6.987c-.038.3-.038.643-.038 1.331v11.228c0 .688 0 1.032.038 1.331a4.857 4.857 0 003.507 4.075c.29.082.63.133 1.31.236 1.472.221 2.208.332 2.943.423 4.633.575 9.32.575 13.954 0 .734-.09 1.47-.202 2.941-.423.68-.103 1.02-.154 1.312-.236a4.857 4.857 0 003.507-4.075c.037-.3.037-.643.037-1.331V8.318c0-.688 0-1.032-.037-1.331a4.857 4.857 0 00-3.507-4.076c-.291-.081-.631-.132-1.312-.235a117.39 117.39 0 00-2.941-.424 56.669 56.669 0 00-13.954 0c-.735.092-1.47.202-2.942.424-.68.103-1.02.154-1.311.235A4.857 4.857 0 001.86 6.987z" clip-rule="evenodd"/><defs><radialGradient id="d" cx="0" cy="0" r="1" gradientTransform="matrix(-15.6851 0 0 -21.6667 22.697 15.762)" gradientUnits="userSpaceOnUse"><stop offset=".286" stop-color="#fff"/><stop offset="1" stop-color="#fff" stop-opacity="0"/></radialGradient><radialGradient id="e" cx="0" cy="0" r="1" gradientTransform="matrix(-15.6851 0 0 -21.6667 22.697 15.762)" gradientUnits="userSpaceOnUse"><stop offset=".286" stop-color="#fff"/><stop offset="1" stop-color="#fff" stop-opacity="0"/></radialGradient><radialGradient id="f" cx="0" cy="0" r="1" gradientTransform="matrix(-15.6851 0 0 -21.6667 22.697 15.762)" gradientUnits="userSpaceOnUse"><stop offset=".286" stop-color="#fff"/><stop offset="1" stop-color="#fff" stop-opacity="0"/></radialGradient><radialGradient id="g" cx="0" cy="0" r="1" gradientTransform="matrix(-15.6851 0 0 -21.6667 22.697 15.762)" gradientUnits="userSpaceOnUse"><stop offset=".286" stop-color="#fff"/><stop offset="1" stop-color="#fff" stop-opacity="0"/></radialGradient><radialGradient id="h" cx="0" cy="0" r="1" gradientTransform="matrix(-15.6851 0 0 -21.6667 22.697 15.762)" gradientUnits="userSpaceOnUse"><stop offset=".286" stop-color="#fff"/><stop offset="1" stop-color="#fff" stop-opacity="0"/></radialGradient><radialGradient id="i" cx="0" cy="0" r="1" gradientTransform="matrix(-15.6851 0 0 -21.6667 22.697 15.762)" gradientUnits="userSpaceOnUse"><stop offset=".286" stop-color="#fff"/><stop offset="1" stop-color="#fff" stop-opacity="0"/></radialGradient><radialGradient id="j" cx="0" cy="0" r="1" gradientTransform="matrix(-15.6851 0 0 -21.6667 22.697 15.762)" gradientUnits="userSpaceOnUse"><stop offset=".286" stop-color="#fff"/><stop offset="1" stop-color="#fff" stop-opacity="0"/></radialGradient><radialGradient id="k" cx="0" cy="0" r="1" gradientTransform="matrix(-15.6851 0 0 -21.6667 22.697 15.762)" gradientUnits="userSpaceOnUse"><stop offset=".286" stop-color="#fff"/><stop offset="1" stop-color="#fff" stop-opacity="0"/></radialGradient><radialGradient id="l" cx="0" cy="0" r="1" gradientTransform="matrix(-15.6851 0 0 -21.6667 22.697 15.762)" gradientUnits="userSpaceOnUse"><stop offset=".286" stop-color="#fff"/><stop offset="1" stop-color="#fff" stop-opacity="0"/></radialGradient><radialGradient id="m" cx="0" cy="0" r="1" gradientTransform="matrix(-15.6851 0 0 -21.6667 22.697 15.762)" gradientUnits="userSpaceOnUse"><stop offset=".286" stop-color="#fff"/><stop offset="1" stop-color="#fff" stop-opacity="0"/></radialGradient><radialGradient id="n" cx="0" cy="0" r="1" gradientTransform="matrix(-15.6851 0 0 -21.6667 22.697 15.762)" gradientUnits="userSpaceOnUse"><stop offset=".286" stop-color="#fff"/><stop offset="1" stop-color="#fff" stop-opacity="0"/></radialGradient><radialGradient id="o" cx="0" cy="0" r="1" gradientTransform="matrix(-15.6851 0 0 -21.6667 22.697 15.762)" gradientUnits="userSpaceOnUse"><stop offset=".286" stop-color="#fff"/><stop offset="1" stop-color="#fff" stop-opacity="0"/></radialGradient><radialGradient id="p" cx="0" cy="0" r="1" gradientTransform="matrix(-15.6851 0 0 -21.6667 22.697 15.762)" gradientUnits="userSpaceOnUse"><stop offset=".286" stop-color="#fff"/><stop offset="1" stop-color="#fff" stop-opacity="0"/></radialGradient><radialGradient id="q" cx="0" cy="0" r="1" gradientTransform="matrix(-15.6851 0 0 -21.6667 22.697 15.762)" gradientUnits="userSpaceOnUse"><stop offset=".286" stop-color="#fff"/><stop offset="1" stop-color="#fff" stop-opacity="0"/></radialGradient><radialGradient id="r" cx="0" cy="0" r="1" gradientTransform="matrix(-15.6851 0 0 -21.6667 22.697 15.762)" gradientUnits="userSpaceOnUse"><stop offset=".286" stop-color="#fff"/><stop offset="1" stop-color="#fff" stop-opacity="0"/></radialGradient><radialGradient id="s" cx="0" cy="0" r="1" gradientTransform="matrix(-15.6851 0 0 -21.6667 22.697 15.762)" gradientUnits="userSpaceOnUse"><stop offset=".286" stop-color="#fff"/><stop offset="1" stop-color="#fff" stop-opacity="0"/></radialGradient><radialGradient id="t" cx="0" cy="0" r="1" gradientTransform="matrix(-15.6851 0 0 -21.6667 22.697 15.762)" gradientUnits="userSpaceOnUse"><stop offset=".286" stop-color="#fff"/><stop offset="1" stop-color="#fff" stop-opacity="0"/></radialGradient><radialGradient id="u" cx="0" cy="0" r="1" gradientTransform="matrix(-15.6851 0 0 -21.6667 22.697 15.762)" gradientUnits="userSpaceOnUse"><stop offset=".286" stop-color="#fff"/><stop offset="1" stop-color="#fff" stop-opacity="0"/></radialGradient><radialGradient id="v" cx="0" cy="0" r="1" gradientTransform="matrix(-15.6851 0 0 -21.6667 22.697 15.762)" gradientUnits="userSpaceOnUse"><stop offset=".286" stop-color="#fff"/><stop offset="1" stop-color="#fff" stop-opacity="0"/></radialGradient><radialGradient id="w" cx="0" cy="0" r="1" gradientTransform="matrix(-15.6851 0 0 -21.6667 22.697 15.762)" gradientUnits="userSpaceOnUse"><stop offset=".286" stop-color="#fff"/><stop offset="1" stop-color="#fff" stop-opacity="0"/></radialGradient><radialGradient id="x" cx="0" cy="0" r="1" gradientTransform="matrix(-15.6851 0 0 -21.6667 22.697 15.762)" gradientUnits="userSpaceOnUse"><stop offset=".286" stop-color="#fff"/><stop offset="1" stop-color="#fff" stop-opacity="0"/></radialGradient><radialGradient id="y" cx="0" cy="0" r="1" gradientTransform="matrix(-15.6851 0 0 -21.6667 22.697 15.762)" gradientUnits="userSpaceOnUse"><stop offset=".286" stop-color="#fff"/><stop offset="1" stop-color="#fff" stop-opacity="0"/></radialGradient><radialGradient id="z" cx="0" cy="0" r="1" gradientTransform="matrix(-15.6851 0 0 -21.6667 22.697 15.762)" gradientUnits="userSpaceOnUse"><stop offset=".286" stop-color="#fff"/><stop offset="1" stop-color="#fff" stop-opacity="0"/></radialGradient><radialGradient id="A" cx="0" cy="0" r="1" gradientTransform="matrix(-15.6851 0 0 -21.6667 22.697 15.762)" gradientUnits="userSpaceOnUse"><stop offset=".286" stop-color="#fff"/><stop offset="1" stop-color="#fff" stop-opacity="0"/></radialGradient><radialGradient id="B" cx="0" cy="0" r="1" gradientTransform="matrix(-15.6851 0 0 -21.6667 22.697 15.762)" gradientUnits="userSpaceOnUse"><stop offset=".286" stop-color="#fff"/><stop offset="1" stop-color="#fff" stop-opacity="0"/></radialGradient><radialGradient id="C" cx="0" cy="0" r="1" gradientTransform="matrix(-15.6851 0 0 -21.6667 22.697 15.762)" gradientUnits="userSpaceOnUse"><stop offset=".286" stop-color="#fff"/><stop offset="1" stop-color="#fff" stop-opacity="0"/></radialGradient><radialGradient id="D" cx="0" cy="0" r="1" gradientTransform="matrix(-15.6851 0 0 -21.6667 22.697 15.762)" gradientUnits="userSpaceOnUse"><stop offset=".286" stop-color="#fff"/><stop offset="1" stop-color="#fff" stop-opacity="0"/></radialGradient><radialGradient id="E" cx="0" cy="0" r="1" gradientTransform="matrix(-15.6851 0 0 -21.6667 22.697 15.762)" gradientUnits="userSpaceOnUse"><stop offset=".286" stop-color="#fff"/><stop offset="1" stop-color="#fff" stop-opacity="0"/></radialGradient><radialGradient id="F" cx="0" cy="0" r="1" gradientTransform="matrix(-15.6851 0 0 -21.6667 22.697 15.762)" gradientUnits="userSpaceOnUse"><stop offset=".286" stop-color="#fff"/><stop offset="1" stop-color="#fff" stop-opacity="0"/></radialGradient><radialGradient id="G" cx="0" cy="0" r="1" gradientTransform="matrix(-15.6851 0 0 -21.6667 22.697 15.762)" gradientUnits="userSpaceOnUse"><stop offset=".286" stop-color="#fff"/><stop offset="1" stop-color="#fff" stop-opacity="0"/></radialGradient><linearGradient id="H" x1="22.596" x2="22.596" y1="28.108" y2="4.732" gradientUnits="userSpaceOnUse"><stop stop-color="#2B2B48"/><stop offset="1" stop-color="#fff" stop-opacity="0"/></linearGradient><linearGradient id="I" x1="22.596" x2="22.596" y1="3.854" y2="26.691" gradientTransform="translate(-6 -2.033)" gradientUnits="userSpaceOnUse"><stop stop-color="#2B2B48"/><stop offset="1" stop-color="#2B2B48" stop-opacity="0"/></linearGradient><linearGradient id="J" x1="22.596" x2="22.596" y1="30.031" y2="2.203" gradientTransform="translate(-6 -2.033)" gradientUnits="userSpaceOnUse"><stop stop-color="#CCD1D4"/><stop offset="1" stop-color="#F2F2F4"/></linearGradient><linearGradient id="K" x1="22.596" x2="22.596" y1="28.108" y2="3.822" gradientTransform="translate(-6 -2.033)" gradientUnits="userSpaceOnUse"><stop stop-color="#fff"/><stop offset="1" stop-color="#fff" stop-opacity="0"/></linearGradient><filter id="a" width="44.443" height="40.288" x=".317" y=".015" color-interpolation-filters="sRGB" filterUnits="userSpaceOnUse"><feFlood flood-opacity="0" result="BackgroundImageFix"/><feBlend in="SourceGraphic" in2="BackgroundImageFix" result="shape"/><feGaussianBlur result="effect1_foregroundBlur_21_55" stdDeviation="4.746"/></filter></defs></svg>